# xmcd
#
# Track frame offsets:
#	150
#	13643
#	26603
#	38556
#	51554
#	61466
#	72619
#	83929
#	92801
#	108555
#	120656
#	132412
#	142588
#	155312
#	166922
#	180594
#	193332
#	203308
#	213928
#	227644
#	239483
#	251633
#	263486
#	273879
#	287050
#	300886
#	313972
#	327368
#	339291
#
# Disc length: 4702 seconds
#
# Revision: 0
# Processed by: cddbd v1.5.2PL0 Copyright (c) Steve Scherf et al.
# Submitted via: audiograbber 1.83.01
#
DISCID=9a125c1d
DTITLE=The McGuire Sisters - Sincerely CD1
DYEAR=1900
DGENRE=Oldies
TTITLE0=Goodnight My Love, Pleasant Dreams
TTITLE1=Are You Looking For A Sweetheart
TTITLE2=Heart
TTITLE3=Endless
TTITLE4=No More
TTITLE5=Uno, Due, Tre
TTITLE6=Does Your Heart Beat For Me
TTITLE7=I'd Like To Trim A Tree With You
TTITLE8=The Littlest Angel
TTITLE9=If You Believe
TTITLE10=He
TTITLE11='s Wonderful
TTITLE12=It May Sound Silly
TTITLE13=Rhythm 'n' Blues
TTITLE14=Miss You
TTITLE15=Pine Tree, Pne Over Me
TTITLE16=Cling To Me
TTITLE17=Tell Me Now
TTITLE18=Sweet Song Of India
TTITLE19=Do You Remember When
TTITLE20=Ev'ry Day Of My Life
TTITLE21=The Cactus Christmas Tree
TTITLE22=Happy New Year
TTITLE23=Give Me Love
TTITLE24=Tootle-Loo-Siana
TTITLE25=You Never Know Till Monday
TTITLE26=Lonesome Polecat
TTITLE27=My Baby's Got Such Lovin' Ways
TTITLE28=Sincerely
EXTD=
EXTT0=
EXTT1=
EXTT2=
EXTT3=
EXTT4=
EXTT5=
EXTT6=
EXTT7=
EXTT8=
EXTT9=
EXTT10=
EXTT11=
EXTT12=
EXTT13=
EXTT14=
EXTT15=
EXTT16=
EXTT17=
EXTT18=
EXTT19=
EXTT20=
EXTT21=
EXTT22=
EXTT23=
EXTT24=
EXTT25=
EXTT26=
EXTT27=
EXTT28=
PLAYORDER=
